<?xml version="1.0" encoding="UTF-8"?>
<!--Generator: Apple Native CoreSVG 341-->
<!DOCTYPE svg
PUBLIC "-//W3C//DTD SVG 1.1//EN"
       "http://www.w3.org/Graphics/SVG/1.1/DTD/svg11.dtd">
<svg version="1.1" xmlns="http://www.w3.org/2000/svg" xmlns:xlink="http://www.w3.org/1999/xlink" viewBox="0 0 32.25 31.8906">
 <g>
  <rect height="31.8906" opacity="0" width="32.25" x="0" y="0"/>
  <path d="M15.9375 31.875C24.7344 31.875 31.875 24.7344 31.875 15.9375C31.875 7.14062 24.7344 0 15.9375 0C7.14062 0 0 7.14062 0 15.9375C0 24.7344 7.14062 31.875 15.9375 31.875ZM15.9375 29.2188C8.59375 29.2188 2.65625 23.2812 2.65625 15.9375C2.65625 8.59375 8.59375 2.65625 15.9375 2.65625C23.2812 2.65625 29.2188 8.59375 29.2188 15.9375C29.2188 23.2812 23.2812 29.2188 15.9375 29.2188Z" fill="white" fill-opacity="0.85"/>
  <path d="M13.1875 11.2031C14.2188 11.2031 15.0625 10.3594 15.0625 9.29688C15.0625 8.26562 14.2188 7.42188 13.1875 7.42188C12.125 7.42188 11.2969 8.26562 11.2969 9.29688C11.2969 10.3594 12.125 11.2031 13.1875 11.2031ZM8.625 17.75C8.23438 19.1719 9.14062 20.0781 10.25 20.0781C10.6094 20.0781 10.9688 19.9844 11.3281 19.7969L16.0156 17.2969L21.2031 19.8906C21.8438 20.2188 22.3438 19.9688 22.5312 19.5625C22.7344 19.1719 22.6094 18.625 22.0156 18.3125L16.5938 15.5938C16.2344 15.4062 15.8438 15.3906 15.4688 15.5625L11.9688 17.0781L12.6719 14.6094C12.7969 14.1719 13.1875 13.875 13.6406 13.875L20.625 13.875C21.1094 13.875 21.5156 13.4844 21.5156 12.9844C21.5156 12.5 21.1094 12.1094 20.625 12.1094L13 12.1094C11.2656 12.1094 9.85938 13.0938 9.45312 14.5781ZM8.34375 22.8906L23.5156 22.8906C23.8281 22.8906 24.0469 22.6719 24.0469 22.3594C24.0469 22.0625 23.8281 21.8281 23.5156 21.8281L8.34375 21.8281C8.03125 21.8281 7.8125 22.0625 7.8125 22.3594C7.8125 22.6719 8.03125 22.8906 8.34375 22.8906Z" fill="white" fill-opacity="0.85"/>
 </g>
</svg>
