<?xml version="1.0" encoding="UTF-8"?>
<!--Generator: Apple Native CoreSVG 341-->
<!DOCTYPE svg
PUBLIC "-//W3C//DTD SVG 1.1//EN"
       "http://www.w3.org/Graphics/SVG/1.1/DTD/svg11.dtd">
<svg version="1.1" xmlns="http://www.w3.org/2000/svg" xmlns:xlink="http://www.w3.org/1999/xlink" viewBox="0 0 32.25 31.8906">
 <g>
  <rect height="31.8906" opacity="0" width="32.25" x="0" y="0"/>
  <path d="M31.875 15.9375C31.875 24.7188 24.7344 31.875 15.9375 31.875C7.15625 31.875 0 24.7188 0 15.9375C0 7.14062 7.15625 0 15.9375 0C24.7344 0 31.875 7.14062 31.875 15.9375ZM14.5312 4.10938C14.375 4.10938 14.2188 4.1875 14.1094 4.3125L8.5 12.0781C8.20312 12.5 8.28125 13.0938 8.78125 13.3125L11.9375 14.6719C12.0625 14.7344 12.1719 14.7344 12.375 14.7344L14.4688 14.7344C14.8125 14.7344 14.9219 14.9531 14.9219 15.2031L14.9219 17.6094L12.8281 21.6094C12.75 21.7344 12.7344 21.8594 12.7344 22.0312L12.7344 26.4688C12.7344 26.9531 13.1094 27.3594 13.625 27.3594C14.0781 27.3594 14.4844 26.9531 14.4844 26.4688L14.4844 22.2812L16.5312 19.2656C16.5938 19.1562 16.7969 19.1875 16.8125 19.3438L17.125 22.0312C17.1406 22.1875 17.1562 22.2656 17.2344 22.4219L18.875 26.7812C19.0938 27.3281 19.5938 27.4375 20 27.2969C20.4219 27.1406 20.7344 26.7344 20.5312 26.1719L18.8906 21.8281L18.8906 13.5312C18.8906 12.6094 18.5 11.6406 17.6094 11.2656L17.0469 11.0312C16.0469 10.6094 15.0938 10.75 14.25 11.3438L12.1719 12.8281L9.90625 11.8906L14.4844 5.51562L15.9688 5.51562C16.375 5.51562 16.7031 5.20312 16.7031 4.8125C16.7031 4.40625 16.375 4.10938 15.9688 4.10938ZM16.0781 8.32812C16.0781 9.40625 16.9375 10.25 18 10.25C19.0469 10.25 19.8906 9.40625 19.8906 8.32812C19.8906 7.28125 19.0469 6.45312 18 6.45312C16.9375 6.45312 16.0781 7.28125 16.0781 8.32812Z" fill="white" fill-opacity="0.85"/>
 </g>
</svg>
