<?xml version="1.0" encoding="UTF-8"?>
<!--Generator: Apple Native CoreSVG 341-->
<!DOCTYPE svg
PUBLIC "-//W3C//DTD SVG 1.1//EN"
       "http://www.w3.org/Graphics/SVG/1.1/DTD/svg11.dtd">
<svg version="1.1" xmlns="http://www.w3.org/2000/svg" xmlns:xlink="http://www.w3.org/1999/xlink" viewBox="0 0 32.25 31.8906">
 <g>
  <rect height="31.8906" opacity="0" width="32.25" x="0" y="0"/>
  <path d="M31.875 15.9375C31.875 24.7188 24.7344 31.875 15.9375 31.875C7.15625 31.875 0 24.7188 0 15.9375C0 7.14062 7.15625 0 15.9375 0C24.7344 0 31.875 7.14062 31.875 15.9375ZM4.59375 19.4531C4.59375 19.75 4.84375 20 5.14062 20C7.82812 20 10.7969 21 12.5 25.4219C12.7031 25.9375 13.2812 26.0156 13.6094 25.6875C15.6094 23.7031 17.875 23.0469 21.1562 23.9844C21.4688 24.0625 21.7031 23.9062 21.8438 23.625C22.5156 22.0781 23.9219 21.2812 25.6094 21.2812C25.9062 21.2812 26.1562 21.0312 26.1562 20.7344C26.1562 20.4375 25.9062 20.1875 25.6094 20.1875C23.7031 20.1875 21.9375 21.1094 21.0156 22.7969C17.8438 22.0469 15.3438 22.6719 13.3125 24.4531C11.3281 20 7.95312 18.9062 5.14062 18.9062C4.84375 18.9062 4.59375 19.125 4.59375 19.4531ZM22 6.10938L15.8438 12.25C15.6719 12.4375 15.5938 12.6719 15.5938 12.9531L15.5938 16.3281L12.4062 16.3281C11.625 16.3281 11.0781 16.875 11.0781 17.6875L11.0781 19.5469C12.0469 20.2656 12.9531 21.2656 13.7344 22.5938C14.2031 22.3125 14.6875 22.0781 15.1719 21.8594L15.1719 18.3594C15.1719 18.2344 15.2656 18.125 15.3906 18.125L16.5156 18.125C17 18.125 17.4219 17.7188 17.4219 17.2344L17.4219 12.2188L18.0312 11.5938L18.0312 15.3906C18.0312 15.9062 18.4531 16.2969 18.9531 16.2969C19.4531 16.2969 19.875 15.9062 19.875 15.3906L19.875 9.76562L22.75 6.85938C22.9688 6.64062 22.9844 6.29688 22.75 6.10938C22.5625 5.89062 22.2188 5.89062 22 6.10938ZM10.875 13.6406C10.875 14.7344 11.75 15.6094 12.8438 15.6094C13.9062 15.6094 14.7812 14.7344 14.7812 13.6406C14.7812 12.5781 13.9062 11.7031 12.8438 11.7031C11.75 11.7031 10.875 12.5781 10.875 13.6406Z" fill="white" fill-opacity="0.85"/>
 </g>
</svg>
