<?xml version="1.0" encoding="UTF-8"?>
<!--Generator: Apple Native CoreSVG 341-->
<!DOCTYPE svg
PUBLIC "-//W3C//DTD SVG 1.1//EN"
       "http://www.w3.org/Graphics/SVG/1.1/DTD/svg11.dtd">
<svg version="1.1" xmlns="http://www.w3.org/2000/svg" xmlns:xlink="http://www.w3.org/1999/xlink" viewBox="0 0 29.1406 23.5781">
 <g>
  <rect height="23.5781" opacity="0" width="29.1406" x="0" y="0"/>
  <path d="M0 22.3125C0 23 0.5625 23.5781 1.25 23.5781C1.95312 23.5781 2.51562 23 2.51562 22.3125L2.51562 1.28125C2.51562 0.59375 1.95312 0.03125 1.25 0.03125C0.5625 0.03125 0 0.59375 0 1.28125ZM26.25 22.3125C26.25 23 26.8281 23.5781 27.5156 23.5781C28.2031 23.5781 28.7656 23 28.7656 22.3125L28.7656 1.28125C28.7656 0.59375 28.2031 0.03125 27.5156 0.03125C26.8281 0.03125 26.25 0.59375 26.25 1.28125Z" fill="white" fill-opacity="0.85"/>
  <path d="M14.6094 19.2188C17.25 19.2188 19.0781 17.25 19.0781 14.4375C19.0781 11.9375 17.6406 10.0312 15.3281 10.0312C13.7344 10.0312 12.6094 10.9844 12.1719 12.3594L12.1094 12.3594C12.1094 11.125 12.1875 10.2188 12.375 9.45312C12.6875 8.20312 13.3281 7.03125 14.6094 7.03125C15.4844 7.03125 16.0781 7.48438 16.4688 8.26562C16.7344 8.71875 17.0781 9.01562 17.6094 9.01562C18.3438 9.01562 18.625 8.5 18.625 8C18.625 7.67188 18.5469 7.35938 18.4062 7.07812C17.8438 5.84375 16.3594 5.03125 14.6406 5.03125C11.2656 5.03125 10.0156 8.20312 9.875 11.4375C9.73438 12.8906 9.875 14.4844 10.2656 15.7188C10.9531 17.75 12.3906 19.2188 14.6094 19.2188ZM14.5781 17.2188C13.2188 17.2188 12.4531 15.8281 12.4531 14.4688C12.4531 13.0625 13.2812 11.8906 14.5938 11.8906C15.9531 11.8906 16.6875 13.1406 16.6875 14.5312C16.6875 15.9062 15.9062 17.2188 14.5781 17.2188Z" fill="white" fill-opacity="0.85"/>
 </g>
</svg>
