<?xml version="1.0" encoding="UTF-8"?>
<!--Generator: Apple Native CoreSVG 341-->
<!DOCTYPE svg
PUBLIC "-//W3C//DTD SVG 1.1//EN"
       "http://www.w3.org/Graphics/SVG/1.1/DTD/svg11.dtd">
<svg version="1.1" xmlns="http://www.w3.org/2000/svg" xmlns:xlink="http://www.w3.org/1999/xlink" viewBox="0 0 32.25 31.8906">
 <g>
  <rect height="31.8906" opacity="0" width="32.25" x="0" y="0"/>
  <path d="M15.9375 31.875C24.7344 31.875 31.875 24.7344 31.875 15.9375C31.875 7.14062 24.7344 0 15.9375 0C7.14062 0 0 7.14062 0 15.9375C0 24.7344 7.14062 31.875 15.9375 31.875ZM15.9375 29.2188C8.59375 29.2188 2.65625 23.2812 2.65625 15.9375C2.65625 8.59375 8.59375 2.65625 15.9375 2.65625C23.2812 2.65625 29.2188 8.59375 29.2188 15.9375C29.2188 23.2812 23.2812 29.2188 15.9375 29.2188Z" fill="white" fill-opacity="0.85"/>
  <path d="M17.5469 11.4531C18.5781 11.4531 19.4219 10.625 19.4219 9.5625C19.4219 8.53125 18.5781 7.6875 17.5469 7.6875C16.4844 7.6875 15.6406 8.53125 15.6406 9.5625C15.6406 10.625 16.4844 11.4531 17.5469 11.4531ZM18.8906 17.3906C19.3906 17.3906 19.7969 16.9844 19.7969 16.4844C19.7969 16 19.3906 15.5938 18.8906 15.5938L15.7344 15.5938L15.7344 12.3438C15.7344 11.2656 14.8125 10.5781 13.8125 10.7812L8.48438 11.8906C6.5625 12.2812 6.03125 14.5781 7.42188 15.7969L10.75 18.7188L10.75 23.2812C10.75 23.7812 11.1562 24.1875 11.6562 24.1875C12.1406 24.1875 12.5625 23.7812 12.5625 23.2812L12.5625 18.375C12.5625 18.0469 12.4844 17.8906 12.2812 17.6562L9.73438 15.0938C9.59375 14.9531 9.67188 14.7344 9.82812 14.7188L13.4219 14.0469C13.7812 13.9844 13.9219 14.0938 13.9219 14.4219L13.9219 16.4844C13.9219 16.9844 14.3125 17.3906 14.8125 17.3906ZM23.7656 20.875L25.0156 20.875C25.4844 20.875 25.8125 20.5625 25.8125 20.1094L25.8125 12.3594C25.8125 11.9219 25.4844 11.5938 25.0469 11.5938L23.7188 11.5938C20.5625 11.5938 18.6719 12.4375 16.6406 14.8281L18.0781 14.8281C18.125 14.8281 18.1875 14.8281 18.2031 14.8281C19.75 13.2969 21.3125 12.7344 23.7188 12.7344L24.6719 12.7344L24.6719 19.75L23.7656 19.75C23.4531 19.75 23.25 19.6094 23.1406 19.3594L22.3438 17.7812C22.2031 17.5 21.8906 17.4375 21.6719 17.5C21.375 17.6094 21.1406 17.9219 21.3125 18.2969L22.1094 19.875C22.4219 20.4844 23.0625 20.875 23.7656 20.875ZM13.3125 20.4844C14.2656 19.8438 14.9688 19 15.625 18.1406L14.8281 18.1406C14.6406 18.1406 14.4375 18.0938 14.25 18.0312C13.9531 18.4062 13.6406 18.7031 13.3125 19.0156ZM7.125 21.7969L8.625 21.7969C9.10938 21.7969 9.57812 21.7656 10 21.6875L10 20.5469C9.57812 20.625 9.125 20.6719 8.625 20.6719L7.125 20.6719C6.8125 20.6719 6.5625 20.9219 6.5625 21.2344C6.5625 21.5312 6.82812 21.7969 7.125 21.7969Z" fill="white" fill-opacity="0.85"/>
 </g>
</svg>
