<?xml version="1.0" encoding="UTF-8"?>
<!--Generator: Apple Native CoreSVG 341-->
<!DOCTYPE svg
PUBLIC "-//W3C//DTD SVG 1.1//EN"
       "http://www.w3.org/Graphics/SVG/1.1/DTD/svg11.dtd">
<svg version="1.1" xmlns="http://www.w3.org/2000/svg" xmlns:xlink="http://www.w3.org/1999/xlink" viewBox="0 0 32.25 31.8906">
 <g>
  <rect height="31.8906" opacity="0" width="32.25" x="0" y="0"/>
  <path d="M31.875 15.9375C31.875 24.7188 24.7344 31.875 15.9375 31.875C7.15625 31.875 0 24.7188 0 15.9375C0 7.14062 7.15625 0 15.9375 0C24.7344 0 31.875 7.14062 31.875 15.9375ZM16.2969 8.67188L13.3906 10.625C12.2656 11.4062 13.3125 12.8438 14.3906 12.1406L16.7812 10.5L18.4375 11.6406C18.6875 11.8125 18.7188 12 18.5625 12.2344L17.2031 14.1875C16.4219 15.3125 17.0469 16.5469 18.25 16.8438L21.8594 17.7656C22.1875 17.8281 22.3906 18.1094 22.3906 18.5C22.3906 21.0781 20.3594 23.0938 17.7344 23.0938C15.125 23.0938 13.0938 21.0781 13.0938 18.4375C13.0938 17.4844 13.3438 16.6406 13.8125 15.9531C14.4062 15.0625 13.2344 14.3281 12.6094 15.2344C12.0469 16.1094 11.6719 17.1875 11.6719 18.4375C11.6719 21.8594 14.3281 24.4844 17.7344 24.4844C21.1562 24.4844 23.7969 21.8594 23.7969 18.4375C23.7969 16.8594 23.1562 15.9062 21.7656 15.4219L20.4531 14.9531C20.2656 14.9062 20.2188 14.8125 20.3594 14.6719L21.1875 13.4219C21.875 12.4219 21.625 11.6094 20.5938 10.8594L17.4688 8.6875C17.0781 8.45312 16.6562 8.45312 16.2969 8.67188ZM22.7656 23.5156C22.7656 24.0625 23.1875 24.4844 23.7656 24.4844C24.3125 24.4844 24.7656 24.0625 24.7656 23.5156C24.7656 22.9688 24.3125 22.5 23.7656 22.5C23.1875 22.5 22.7656 22.9688 22.7656 23.5156ZM7.42188 18.8594C7.0625 18.8594 6.8125 19.1406 6.8125 19.5C6.8125 19.8906 7.0625 20.1406 7.42188 20.1406L9.64062 20.1406C10 20.1406 10.2656 19.8906 10.2656 19.5C10.2656 19.1406 10 18.8594 9.64062 18.8594ZM5.03125 15.7812C4.6875 15.7812 4.42188 16.0938 4.42188 16.4219C4.42188 16.7969 4.6875 17.0469 5.03125 17.0469L9.64062 17.0469C10 17.0469 10.2656 16.7969 10.2656 16.4219C10.2656 16.0625 10 15.7812 9.64062 15.7812ZM5.78125 12.6875C5.42188 12.6875 5.17188 12.9844 5.17188 13.3281C5.17188 13.6719 5.42188 13.9688 5.78125 13.9688L9.64062 13.9688C10 13.9688 10.2656 13.6875 10.2656 13.3281C10.2656 12.9688 10 12.6875 9.64062 12.6875ZM20.7656 9.17188C20.7656 10.2031 21.6094 11.0469 22.6406 11.0469C23.7031 11.0469 24.5 10.2031 24.5 9.17188C24.5 8.125 23.7031 7.3125 22.6406 7.3125C21.6094 7.3125 20.7656 8.125 20.7656 9.17188Z" fill="white" fill-opacity="0.85"/>
 </g>
</svg>
